{"title":"2 Guns (2013) SUBBED PPVRip XViD MP3 - Exclusive","uid":9069331,"size":1715648548,"categoryP":"video","categoryS":"movies","magnet":"?xt=urn:btih:6522d3d82d0509881e85ac968990ee829ab8fa7f&amp;dn=2+Guns+%282013%29+SUBBED+PPVRip+XViD+MP3+-+Exclusive&amp;tr=udp%3A%2F%2Ftracker.openbittorrent.com%3A80&amp;tr=udp%3A%2F%2Fopen.demonii.com%3A1337&amp;tr=udp%3A%2F%2Ftracker.coppersurfer.tk%3A6969&amp;tr=udp%3A%2F%2Fexodus.desync.com%3A6969","seeders":2,"leechers":3,"uploader":"tykoon123","files":-1,"time":1382168973,"description":" &lt;a href=&quot;http://megaimg.com/images/47464970852414118192.jpeg&quot; rel=&quot;nofollow&quot; target=&quot;_NEW&quot;&gt;http://megaimg.com/images/47464970852414118192.jpeg&lt;/a&gt;\n\nInfo:\nIMDB: http://www.imdb.com/title/tt1272878/\nSUBTITLE: Arabic\nSOURCE: A Friend (THANKS)\nGeneral\nFormat: AVI\nFormat/Info: Audio Video Interleave\nFormat profile: OpenDML\nFile size: 1.60 GiB\nDuration: 1h 44mn\nOverall bit rate: 2 196 Kbps\nWriting application: MEncoder SVN-r33883(20110719-gcc4.5.2)\nWriting library: MPlayer\n\nVideo\nID: 0\nFormat: MPEG-4 Visual\nFormat profile: Advanced Simple@L5\nFormat settings, BVOP: 2\nFormat settings, QPel: No\nFormat settings, GMC: No warppoints\nFormat settings, Matrix: Default (H.263)\nCodec ID: XVID\nCodec ID/Hint: XviD\nDuration: 1h 44mn\nBit rate: 2 048 Kbps\nWidth: 1 280 pixels\nHeight: 720 pixels\nDisplay aspect ratio: 1.600\nOriginal display aspect ratio: 16:9\nFrame rate: 60.000 fps\nColor space: YUV\nChroma subsampling: 4:2:0\nBit depth: 8 bits\nScan type: Progressive\nCompression mode: Lossy\nBits/(Pixel*Frame): 0.037\nStream size: 1.49 GiB (93%)\nWriting library: XviD 1.2.1 (UTC 2008-12-04)\n\nAudio\nID: 1\nFormat: MPEG Audio\nFormat version: Version 1\nFormat profile: Layer 3\nMode: Joint stereo\nMode extension: MS Stereo\nCodec ID: 55\nCodec ID/Hint: MP3\nDuration: 1h 44mn\nBit rate mode: Constant\nBit rate: 128 Kbps\nChannel(s): 2 channels\nSampling rate: 44.1 KHz\nCompression mode: Lossy\nDelay relative to video: 17ms\nStream size: 95.3 MiB (6%)\nAlignment: Aligned on interleaves\nInterleave, duration: 26 ms (1.57 video frames)\nInterleave, preload duration: 522 ms \n\nScreens: &lt;a href=&quot;\nhttp://1337x.org/torrent/650740/2-Guns-2013-SUBBED-PPVRip-XViD-MP3-Exclusive/&quot; rel=&quot;nofollow&quot; target=&quot;_NEW&quot;&gt;\nhttp://1337x.org/torrent/650740/2-Guns-2013-SUBBED-PPVRip-XViD-MP3-Exclusive/&lt;/a&gt;","torrent":{"xt":"urn:btih:6522d3d82d0509881e85ac968990ee829ab8fa7f","amp;dn":"2+Guns+%282013%29+SUBBED+PPVRip+XViD+MP3+-+Exclusive","amp;tr":["udp%3A%2F%2Ftracker.openbittorrent.com%3A80","udp%3A%2F%2Fopen.demonii.com%3A1337","udp%3A%2F%2Ftracker.coppersurfer.tk%3A6969","udp%3A%2F%2Fexodus.desync.com%3A6969"],"infoHash":"6522d3d82d0509881e85ac968990ee829ab8fa7f","infoHashBuffer":{"type":"Buffer","data":[101,34,211,216,45,5,9,136,30,133,172,150,137,144,238,130,154,184,250,127]},"announce":[],"urlList":[]}}